<svg width="30" height="30" viewBox="0 0 30 30" fill="none" xmlns="http://www.w3.org/2000/svg">
<path d="M24.6489 9.62077L23.6567 9.49674L24.6489 9.62077C24.7595 8.73635 24.2715 7.88551 23.4522 7.53441L23.0583 8.45356L23.4522 7.53441L15.7878 4.24968C15.2847 4.03406 14.7153 4.03406 14.2122 4.24968L6.54778 7.53441C5.72855 7.88551 5.24051 8.73635 5.35106 9.62077L6.21405 16.5247C6.4342 18.2859 7.31517 19.8977 8.6787 21.034L13.7196 25.2347C14.4613 25.8528 15.5387 25.8528 16.2804 25.2347L21.3213 21.034C22.6848 19.8977 23.5658 18.2859 23.7859 16.5247L24.6489 9.62077Z" stroke="white" stroke-width="2" stroke-linecap="round"/>
<path d="M11.25 15L14.5687 18.3187C14.7918 18.5418 15.1633 18.5051 15.3383 18.2425L20 11.25" stroke="white" stroke-width="2" stroke-linecap="round"/>
</svg>
