<svg width="35" height="35" viewBox="0 0 35 35" fill="none" xmlns="http://www.w3.org/2000/svg">
<rect x="4.375" y="8.75" width="26.25" height="21.875" rx="2" stroke="#757575"/>
<path d="M4.375 12.75C4.375 10.8644 4.375 9.92157 4.96079 9.33579C5.54657 8.75 6.48938 8.75 8.375 8.75H26.625C28.5106 8.75 29.4534 8.75 30.0392 9.33579C30.625 9.92157 30.625 10.8644 30.625 12.75V14.5833H4.375V12.75Z" fill="#757575"/>
<path d="M10.209 4.375L10.209 8.75" stroke="#757575" stroke-linecap="round"/>
<path d="M24.791 4.375L24.791 8.75" stroke="#757575" stroke-linecap="round"/>
<rect x="10.209" y="17.5" width="5.83333" height="2.91667" rx="0.5" fill="#757575"/>
<rect x="10.209" y="23.333" width="5.83333" height="2.91667" rx="0.5" fill="#757575"/>
<rect x="18.959" y="17.5" width="5.83333" height="2.91667" rx="0.5" fill="#757575"/>
<rect x="18.959" y="23.333" width="5.83333" height="2.91667" rx="0.5" fill="#757575"/>
</svg>
