<svg width="40" height="40" viewBox="0 0 40 40" fill="none" xmlns="http://www.w3.org/2000/svg">
<path d="M32.2674 28.3335C33.5108 29.0936 34.1654 29.9558 34.1654 30.8335C34.1654 31.7112 33.5108 32.5734 32.2674 33.3335C31.024 34.0936 29.2356 34.7248 27.082 35.1636C24.9284 35.6025 22.4855 35.8335 19.9987 35.8335C17.5119 35.8335 15.069 35.6025 12.9154 35.1636C10.7618 34.7248 8.97339 34.0936 7.73001 33.3335C6.48662 32.5734 5.83203 31.7112 5.83203 30.8335C5.83203 29.9558 6.48662 29.0936 7.73 28.3335" stroke="white" stroke-width="2" stroke-linecap="round"/>
<path d="M32.5 16.6665C32.5 25.364 22.6073 31.1174 20.4233 32.2816C20.1533 32.4255 19.8467 32.4255 19.5767 32.2816C17.3927 31.1174 7.5 25.364 7.5 16.6665C7.5 9.1665 13.5567 4.1665 20 4.1665C26.6667 4.1665 32.5 9.1665 32.5 16.6665Z" stroke="white" stroke-width="2"/>
<circle cx="19.9987" cy="16.6667" r="5.66667" stroke="white" stroke-width="2"/>
</svg>
