<svg width="30" height="30" viewBox="0 0 30 30" fill="none" xmlns="http://www.w3.org/2000/svg">
<path d="M10 23.6603C11.5202 24.5379 13.2446 25 15 25C16.7554 25 18.4798 24.5379 20 23.6603C21.5202 22.7826 22.7826 21.5202 23.6603 20C24.5379 18.4798 25 16.7554 25 15C25 13.2446 24.5379 11.5202 23.6603 10C22.7826 8.47981 21.5202 7.21743 20 6.33975C18.4798 5.46206 16.7554 5 15 5C13.2446 5 11.5202 5.46206 10 6.33975" stroke="white" stroke-width="2"/>
<path d="M2.5 15L1.71913 14.3753L1.21938 15L1.71913 15.6247L2.5 15ZM13.75 16C14.3023 16 14.75 15.5523 14.75 15C14.75 14.4477 14.3023 14 13.75 14V16ZM6.71913 8.1253L1.71913 14.3753L3.28087 15.6247L8.28087 9.3747L6.71913 8.1253ZM1.71913 15.6247L6.71913 21.8747L8.28087 20.6253L3.28087 14.3753L1.71913 15.6247ZM2.5 16H13.75V14H2.5V16Z" fill="white"/>
</svg>
