<svg width="40" height="40" viewBox="0 0 40 40" fill="none" xmlns="http://www.w3.org/2000/svg">
<path d="M3.33398 19.9998C3.33398 16.8845 3.33398 15.3268 4.00386 14.1665C4.4427 13.4064 5.07389 12.7752 5.83398 12.3364C6.99424 11.6665 8.55193 11.6665 11.6673 11.6665H28.334C31.4494 11.6665 33.0071 11.6665 34.1673 12.3364C34.9274 12.7752 35.5586 13.4064 35.9974 14.1665C36.6673 15.3268 36.6673 16.8845 36.6673 19.9998C36.6673 23.1152 36.6673 24.6729 35.9974 25.8332C35.5586 26.5933 34.9274 27.2245 34.1673 27.6633C33.0071 28.3332 31.4494 28.3332 28.334 28.3332H11.6673C8.55193 28.3332 6.99424 28.3332 5.83398 27.6633C5.07389 27.2245 4.4427 26.5933 4.00386 25.8332C3.33398 24.6729 3.33398 23.1152 3.33398 19.9998Z" stroke="white" stroke-width="2"/>
<path d="M31.6673 6.66683C31.6673 4.82588 30.1749 3.3335 28.334 3.3335H11.6673C9.82637 3.3335 8.33398 4.82588 8.33398 6.66683" stroke="white" stroke-width="2"/>
<path d="M31.6673 33.3335C31.6673 35.1744 30.1749 36.6668 28.334 36.6668H11.6673C9.82637 36.6668 8.33398 35.1744 8.33398 33.3335" stroke="white" stroke-width="2"/>
<rect x="9.16732" y="17.4998" width="8.33333" height="1.66667" rx="0.833333" stroke="white" stroke-width="1.66667"/>
</svg>
